<svg width="26" height="26" viewBox="0 0 26 26" fill="none" xmlns="http://www.w3.org/2000/svg">
<path fill-rule="evenodd" clip-rule="evenodd" d="M5.41663 8.8833C5.63211 8.8833 5.83878 8.9689 5.99115 9.12128C6.14352 9.27365 6.22913 9.48031 6.22913 9.6958V18.3625C6.22913 19.7556 7.27346 20.8 8.66663 20.8H17.3333C18.7265 20.8 19.7708 19.7556 19.7708 18.3625V9.6958C19.7708 9.48031 19.8564 9.27365 20.0088 9.12128C20.1611 8.9689 20.3678 8.8833 20.5833 8.8833C20.7988 8.8833 21.0054 8.9689 21.1578 9.12128C21.3102 9.27365 21.3958 9.48031 21.3958 9.6958V18.3625C21.3958 20.6526 19.6235 22.425 17.3333 22.425H8.66663C6.37646 22.425 4.60413 20.6526 4.60413 18.3625V9.6958C4.60413 9.48031 4.68973 9.27365 4.8421 9.12128C4.99447 8.9689 5.20114 8.8833 5.41663 8.8833Z" fill="#E8E8E8"/>
<path fill-rule="evenodd" clip-rule="evenodd" d="M5.95831 5.20005C4.89014 5.20005 4.06248 6.02772 4.06248 7.09588C4.06248 8.16405 4.89014 8.99172 5.95831 8.99172H20.0416C20.4966 8.99172 20.9755 8.7783 21.3492 8.40347C21.7241 8.02972 21.9375 7.55088 21.9375 7.09588C21.9375 6.02772 21.1098 5.20005 20.0416 5.20005H5.95831ZM2.43748 7.09588C2.43402 6.63255 2.52272 6.17316 2.69844 5.74443C2.87415 5.31571 3.13336 4.9262 3.46099 4.59856C3.78862 4.27093 4.17813 4.01172 4.60686 3.83601C5.03559 3.6603 5.49498 3.57159 5.95831 3.57505H20.0416C20.505 3.57159 20.9644 3.6603 21.3931 3.83601C21.8218 4.01172 22.2113 4.27093 22.539 4.59856C22.8666 4.9262 23.1258 5.31571 23.3015 5.74443C23.4772 6.17316 23.5659 6.63255 23.5625 7.09588C23.5625 8.04922 23.1259 8.92455 22.4986 9.55288C21.8703 10.1812 20.995 10.6167 20.0416 10.6167H5.95831C5.49498 10.6202 5.03559 10.5315 4.60686 10.3558C4.17813 10.18 3.78862 9.92083 3.46099 9.5932C3.13336 9.26557 2.87415 8.87606 2.69844 8.44733C2.52272 8.0186 2.43402 7.55921 2.43748 7.09588Z" fill="#E8E8E8"/>
</svg>
