<svg width="26" height="26" viewBox="0 0 26 26" fill="none" xmlns="http://www.w3.org/2000/svg">
<path fill-rule="evenodd" clip-rule="evenodd" d="M7.60504 4.76337C8.15754 4.21087 8.91587 3.9292 9.75004 3.9292H16.25C17.0396 3.93092 17.7964 4.24534 18.3547 4.80367C18.9131 5.362 19.2275 6.11877 19.2292 6.90837V20.125C19.2292 21.5702 17.7277 22.5712 16.3887 21.8064L16.3064 21.7587L13.0575 18.7264C13.0202 18.7137 12.9798 18.7137 12.9426 18.7264L9.69262 21.7598L9.61137 21.8064C8.27237 22.5712 6.77087 21.5702 6.77087 20.1261V6.90945C6.77087 6.07528 7.05254 5.31478 7.60504 4.76337ZM8.75337 5.9117C8.54754 6.11862 8.39587 6.44362 8.39587 6.90837V20.125C8.39587 20.2767 8.46521 20.3644 8.53346 20.4067C8.5643 20.4257 8.59917 20.4373 8.63528 20.4405C8.67139 20.4437 8.70775 20.4384 8.74146 20.4251L11.9525 17.4275L12.0077 17.3907C12.3019 17.1957 12.6471 17.0917 13 17.0917C13.353 17.0917 13.6982 17.1957 13.9924 17.3907L14.0476 17.4275L17.2586 20.4251C17.3453 20.4554 17.4146 20.4381 17.4655 20.4067C17.5349 20.3644 17.6042 20.2767 17.6042 20.125V6.90837C17.6042 6.16628 16.9932 5.5542 16.25 5.5542H9.75004C9.28421 5.5542 8.95921 5.70587 8.75337 5.9117Z" fill="#E8E8E8"/>
</svg>
