<svg width="26" height="26" viewBox="0 0 26 26" fill="none" xmlns="http://www.w3.org/2000/svg">
<path fill-rule="evenodd" clip-rule="evenodd" d="M13 4.0625C10.6296 4.0625 8.35634 5.00413 6.68023 6.68023C5.00413 8.35634 4.0625 10.6296 4.0625 13C4.0625 15.3704 5.00413 17.6437 6.68023 19.3198C8.35634 20.9959 10.6296 21.9375 13 21.9375C15.3704 21.9375 17.6437 20.9959 19.3198 19.3198C20.9959 17.6437 21.9375 15.3704 21.9375 13C21.9375 10.6296 20.9959 8.35634 19.3198 6.68023C17.6437 5.00413 15.3704 4.0625 13 4.0625ZM2.4375 13C2.4375 7.16625 7.16625 2.4375 13 2.4375C18.8338 2.4375 23.5625 7.16625 23.5625 13C23.5625 18.8338 18.8338 23.5625 13 23.5625C7.16625 23.5625 2.4375 18.8338 2.4375 13Z" fill="#E8E8E8"/>
<path fill-rule="evenodd" clip-rule="evenodd" d="M16.8242 9.17585C16.9763 9.3282 17.0618 9.5347 17.0618 9.75002C17.0618 9.96533 16.9763 10.1718 16.8242 10.3242L13.5742 13.5742C13.4998 13.654 13.4101 13.718 13.3104 13.7624C13.2108 13.8069 13.1032 13.8307 12.9941 13.8327C12.885 13.8346 12.7766 13.8145 12.6754 13.7737C12.5743 13.7328 12.4824 13.672 12.4052 13.5948C12.3281 13.5177 12.2672 13.4258 12.2264 13.3246C12.1855 13.2234 12.1654 13.115 12.1674 13.006C12.1693 12.8969 12.1932 12.7893 12.2376 12.6896C12.282 12.5899 12.346 12.5002 12.4258 12.4259L15.6758 9.17585C15.8282 9.0237 16.0347 8.93823 16.25 8.93823C16.4653 8.93823 16.6718 9.0237 16.8242 9.17585Z" fill="#E8E8E8"/>
</svg>
