<svg width="26" height="26" viewBox="0 0 26 26" fill="none" xmlns="http://www.w3.org/2000/svg">
<path fill-rule="evenodd" clip-rule="evenodd" d="M10.2916 3.95416C9.72967 3.95416 9.17322 4.06485 8.65405 4.27989C8.13488 4.49494 7.66315 4.81014 7.26579 5.2075C6.86843 5.60486 6.55323 6.07659 6.33818 6.59576C6.12313 7.11493 6.01245 7.67138 6.01245 8.23333C6.01245 8.79528 6.12313 9.35172 6.33818 9.8709C6.55323 10.3901 6.86843 10.8618 7.26579 11.2592C7.66315 11.6565 8.13488 11.9717 8.65405 12.1868C9.17322 12.4018 9.72967 12.5125 10.2916 12.5125C11.4265 12.5125 12.5149 12.0617 13.3174 11.2592C14.1199 10.4567 14.5708 9.36823 14.5708 8.23333C14.5708 7.09842 14.1199 6.01 13.3174 5.2075C12.5149 4.405 11.4265 3.95416 10.2916 3.95416ZM4.38745 8.23333C4.38745 6.66745 5.0095 5.1657 6.11674 4.05845C7.22399 2.95121 8.72573 2.32916 10.2916 2.32916C11.8575 2.32916 13.3592 2.95121 14.4665 4.05845C15.5737 5.1657 16.1958 6.66745 16.1958 8.23333C16.1958 9.79921 15.5737 11.301 14.4665 12.4082C13.3592 13.5155 11.8575 14.1375 10.2916 14.1375C8.72573 14.1375 7.22399 13.5155 6.11674 12.4082C5.0095 11.301 4.38745 9.79921 4.38745 8.23333Z" fill="white"/>
<path fill-rule="evenodd" clip-rule="evenodd" d="M8.66672 14.1375C6.08189 14.1375 3.95422 16.2651 3.95422 18.85C3.95279 19.2701 4.03448 19.6863 4.19458 20.0747C4.35468 20.463 4.59002 20.8159 4.88707 21.113C5.18412 21.41 5.53699 21.6454 5.92537 21.8055C6.31376 21.9656 6.72997 22.0472 7.15006 22.0458H13.5417C15.3401 22.0458 16.7484 20.5931 16.8459 18.8294C16.8351 16.2543 14.7117 14.1375 12.1334 14.1375H8.66672ZM2.32922 18.85C2.32922 15.3681 5.18489 12.5125 8.66672 12.5125H12.1334C15.6152 12.5125 18.4709 15.3681 18.4709 18.85V18.8901C18.3409 21.4521 16.2869 23.6708 13.5417 23.6708H7.15006C4.41247 23.6708 2.32922 21.4511 2.32922 18.85ZM20.2584 8.39581C20.4739 8.39581 20.6805 8.48142 20.8329 8.63379C20.9853 8.78616 21.0709 8.99282 21.0709 9.20831V14.5166C21.0709 14.7321 20.9853 14.9388 20.8329 15.0912C20.6805 15.2435 20.4739 15.3291 20.2584 15.3291C20.0429 15.3291 19.8362 15.2435 19.6839 15.0912C19.5315 14.9388 19.4459 14.7321 19.4459 14.5166V9.20831C19.4459 8.99282 19.5315 8.78616 19.6839 8.63379C19.8362 8.48142 20.0429 8.39581 20.2584 8.39581Z" fill="white"/>
<path fill-rule="evenodd" clip-rule="evenodd" d="M16.7375 11.9167C16.7375 11.7012 16.8232 11.4945 16.9755 11.3422C17.1279 11.1898 17.3346 11.1042 17.55 11.1042H22.8584C23.0739 11.1042 23.2805 11.1898 23.4329 11.3422C23.5853 11.4945 23.6709 11.7012 23.6709 11.9167C23.6709 12.1322 23.5853 12.3388 23.4329 12.4912C23.2805 12.6436 23.0739 12.7292 22.8584 12.7292H17.55C17.3346 12.7292 17.1279 12.6436 16.9755 12.4912C16.8232 12.3388 16.7375 12.1322 16.7375 11.9167Z" fill="white"/>
</svg>
